<?xml version="1.0" encoding="UTF-8" standalone="no"?>
<!-- Created with Inkscape (http://www.inkscape.org/) -->

<svg
   width="210mm"
   height="297mm"
   viewBox="0 0 210 297"
   version="1.1"
   id="svg5"
   inkscape:version="1.1 (c68e22c387, 2021-05-23)"
   sodipodi:docname="рисунок-1.svg"
   xmlns:inkscape="http://www.inkscape.org/namespaces/inkscape"
   xmlns:sodipodi="http://sodipodi.sourceforge.net/DTD/sodipodi-0.dtd"
   xmlns="http://www.w3.org/2000/svg"
   xmlns:svg="http://www.w3.org/2000/svg">
  <sodipodi:namedview
     id="namedview7"
     pagecolor="#ffffff"
     bordercolor="#666666"
     borderopacity="1.0"
     inkscape:pageshadow="2"
     inkscape:pageopacity="0.0"
     inkscape:pagecheckerboard="0"
     inkscape:document-units="mm"
     showgrid="false"
     inkscape:zoom="0.79311236"
     inkscape:cx="363.75678"
     inkscape:cy="250.2798"
     inkscape:window-width="1366"
     inkscape:window-height="705"
     inkscape:window-x="-8"
     inkscape:window-y="-8"
     inkscape:window-maximized="1"
     inkscape:current-layer="layer1" />
  <defs
     id="defs2">
    <linearGradient
       id="linearGradient21608"
       inkscape:swatch="gradient">
      <stop
         style="stop-color:#000000;stop-opacity:1;"
         offset="0"
         id="stop21604" />
      <stop
         style="stop-color:#000000;stop-opacity:0;"
         offset="1"
         id="stop21606" />
    </linearGradient>
    <linearGradient
       id="linearGradient17467"
       inkscape:swatch="solid">
      <stop
         style="stop-color:#ff5400;stop-opacity:1;"
         offset="0"
         id="stop17465" />
    </linearGradient>
    <linearGradient
       id="linearGradient17331"
       inkscape:swatch="gradient">
      <stop
         style="stop-color:#ff5400;stop-opacity:1;"
         offset="0"
         id="stop17327" />
      <stop
         style="stop-color:#ff5400;stop-opacity:0;"
         offset="1"
         id="stop17329" />
    </linearGradient>
  </defs>
  <g
     inkscape:label="Слой 1"
     inkscape:groupmode="layer"
     id="layer1">
    <g
       aria-label="хозяюшка"
       transform="scale(0.66554774,1.5025218)"
       id="text91768"
       style="font-size:28.6783px;line-height:1.25;font-family:Stencil;-inkscape-font-specification:Stencil;stroke-width:0.672145">
      <path
         d="m 103.77874,32.600914 3.55678,5.335172 0.14004,0.294065 0.028,0.266058 c 0,0.252055 -0.10269,0.480772 -0.30807,0.686151 l -0.15403,0.126028 -0.21005,0.09802 -0.36408,0.05601 c -0.27072,0 -0.53211,-0.144698 -0.78417,-0.434095 l -3.09468,-4.649021 -3.094678,4.649021 c -0.196043,0.298732 -0.466769,0.448098 -0.812178,0.448098 -0.205379,0 -0.434096,-0.09802 -0.686151,-0.294064 -0.214714,-0.196043 -0.322071,-0.429428 -0.322071,-0.700154 0,-0.168037 -14.480042,5.422641 -14.368018,5.226598 l 18.092836,-11.10789 -3.556781,-5.335172 -0.140031,-0.294065 -0.02801,-0.266058 c 0,-0.252055 0.09802,-0.476105 0.294065,-0.672148 0.196043,-0.196043 0.44343,-0.294065 0.742163,-0.294065 0.270726,0 0.532117,0.144699 0.784172,0.434096 l 3.094682,4.649021 3.09468,-4.649021 c 0.19604,-0.298733 0.46677,-0.448099 0.81218,-0.448099 0.19604,0 14.96547,-6.784834 15.2362,-6.588791 0.20538,0.205379 -14.22798,7.321619 -14.22798,7.58301 0,0.168037 -0.056,0.350077 -0.16804,0.54612 z"
         id="path105770"
         sodipodi:nodetypes="cccccccccccscscccccsscccscscc"
         style="fill:#07b056;fill-opacity:1" />
      <path
         d="m 121.21257,35.149474 c 0,1.166923 -0.42009,2.179812 -1.26027,3.038667 -0.83085,0.84952 2.64095,5.71067 1.95976,5.270777 l -6.18869,-3.996497 c -0.66007,-0.426256 -2.17982,-0.415424 -3.03867,-1.246273 -0.84952,-0.830849 -1.27428,-1.853074 -1.27428,-3.066674 v -5.09712 c 0,-1.148252 0.42009,-2.151806 1.26028,-3.010662 0.84018,-0.868191 1.85774,-1.302286 3.05267,-1.302286 h 1.17626 c 1.16692,0 2.17514,0.420092 3.02466,1.260277 0.85885,0.830849 1.28828,1.848406 1.28828,3.052671 z m -1.96043,0 v -5.09712 c 0,-0.644141 -16.43113,-10.960397 -16.88856,-11.417831 -0.4481,-0.46677 15.19886,9.065314 14.53605,9.065314 h -1.17626 c -0.64414,0 -1.1996,0.228717 -1.66637,0.686151 -0.45743,0.457434 -0.68615,1.012889 -0.68615,1.666366 v 5.09712 c 0,0.644141 0.22872,1.199597 0.68615,1.666366 0.45743,0.457434 1.01289,0.686151 1.66637,0.686151 h 1.17626 c 0.63481,0 1.18559,-0.224049 1.65236,-0.672148 0.46677,-0.448099 0.70015,-1.008222 0.70015,-1.680369 z"
         id="path105772"
         sodipodi:nodetypes="scsscsscsscsssscsscsscssss"
         style="fill:#800000" />
      <path
         d="m 130.28657,33.581129 h -1.23227 q -0.4481,0 -0.72816,-0.280061 -0.25206,-0.294065 -0.25206,-0.700154 0,-0.350077 0.25206,-0.658145 0.26605,-0.32207 0.72816,-0.32207 h 0.98021 q 0.8962,0 1.42832,-0.58813 0.53211,-0.602132 0.53211,-1.372301 0,-0.826182 -0.4761,-1.358299 -0.23805,-0.266058 -0.61614,-0.434095 -0.37808,-0.168037 -0.86819,-0.168037 h -0.98021 q -1.3583,0 -2.35252,0.784172 -0.25206,0.168037 -0.60213,0.210047 -0.30807,0 -0.68615,-0.294065 -0.28007,-0.308068 -0.28007,-0.714157 0,-0.462102 0.39209,-0.770169 1.51233,-1.176259 3.52878,-1.176259 h 0.98021 q 1.84841,0 2.94065,1.218268 0.98021,1.106243 0.98021,2.702594 0,0.462101 -0.07,0.840184 -0.07,0.378083 -0.23805,0.77017 -0.28007,0.68615 -0.92421,1.330292 0.56013,0.518114 0.92421,1.330292 l 0.22404,0.784172 q 0.084,0.378084 0.084,0.840185 0,1.610354 -0.98021,2.688591 -1.05023,1.218267 -2.94065,1.218267 h -0.98021 q -1.97444,0 -3.52878,-1.176258 -0.40609,-0.294065 -0.40609,-0.784172 0,-0.322071 0.29407,-0.672148 0.29406,-0.350077 0.68615,-0.350077 0.26606,0 0.60213,0.238052 1.02222,0.784173 2.35252,0.784173 h 0.98021 q 0.8822,0 1.41431,-0.58813 0.54612,-0.602132 0.54612,-1.386304 0,-0.756166 -0.42009,-1.27428 -0.42009,-0.518114 -1.28828,-0.672148 z"
         id="path105774"
         style="fill:#ff8080" />
      <path
         d="m 145.71796,31.620699 v -3.920862 h -3.92087 c -0.55079,0 -1.03623,0.196043 -1.45632,0.588129 -0.33607,0.382751 -0.50411,0.840185 -0.50411,1.372302 0,0.494775 0.16804,0.947541 0.50411,1.358298 0.34541,0.401422 0.83085,0.602133 1.45632,0.602133 z m -2.40853,1.96043 -3.6268,5.447197 c -0.0747,0.12136 -0.20071,0.238052 -0.37808,0.350077 l -0.4341,0.09802 c -0.20538,0 -0.4341,-0.09802 -0.68615,-0.294064 -0.21471,-0.196043 -0.32207,-0.429428 -0.32207,-0.700154 0,-0.168037 0.056,-0.350077 0.16804,-0.54612 l 2.94064,-4.410969 c -0.96154,-0.140031 -1.71771,-0.592797 -2.2685,-1.358298 -0.55079,-0.765502 -0.82618,-1.601019 -0.82618,-2.506551 0,-1.054899 0.32674,-1.951096 0.98022,-2.688591 0.73749,-0.821514 1.71771,-1.232271 2.94064,-1.232271 h 4.90108 c 0.65348,0 0.98022,0.326739 0.98022,0.980216 v 11.762584 c 0,0.308068 -0.0934,0.555456 -0.28007,0.742163 -0.17737,0.158701 -0.41075,0.238052 -0.70015,0.238052 -0.26139,0 -0.49011,-0.07935 -0.68615,-0.238052 -0.19604,-0.168037 -8.49806,8.455339 -8.31395,8.138941 l 8.01989,-13.782181 z"
         id="path105776"
         sodipodi:nodetypes="ccscscsccccccsccsscsssscscscc"
         style="fill:#0000ff" />
      <path
         d="m 161.4014,36.129689 v -7.05755 c 0,-0.36408 -0.13536,-0.681483 -0.40609,-0.95221 -0.25205,-0.280061 -0.57412,-0.420092 -0.96621,-0.420092 h -1.17626 c -0.35475,0 -0.67215,0.135363 -0.95221,0.406089 -0.28006,0.252055 -0.42009,0.574126 -0.42009,0.966213 v 7.05755 c 0,0.382751 0.1307,0.709489 0.39209,0.980216 0.14003,0.12136 0.29406,0.219381 0.4621,0.294064 0.19604,0.06535 0.36874,0.09802 0.51811,0.09802 h 1.17626 c 0.39209,0 0.71883,-0.130695 0.98022,-0.392086 0.26139,-0.261391 0.39208,-0.58813 0.39208,-0.980216 z m -7.84172,-4.50899 h 1.96043 v -2.54856 c 0,-0.924203 5.3345,-7.703121 5.97864,-8.347262 0.65348,-0.653478 -3.57011,5.014529 -2.64591,5.014529 h 1.17626 c 0.90553,0 1.68504,0.322071 2.33851,0.966213 0.66281,0.634806 0.99422,1.423646 0.99422,2.36652 v 7.05755 c 0,0.924203 -0.32674,1.713043 -0.98021,2.36652 -0.64415,0.644141 -1.42832,0.966212 -2.35252,0.966212 h -1.17626 c -0.90553,0 -1.68971,-0.322071 -2.35252,-0.966212 -0.65347,-0.653477 -0.98021,-1.442317 -0.98021,-2.36652 v -2.54856 h -1.96043 v 4.901077 c 0,0.308068 -0.0933,0.555456 -0.28006,0.742163 -0.17737,0.158701 -0.41076,0.238052 -0.70016,0.238052 -0.26139,0 -0.4901,-0.07935 -0.68615,-0.238052 -0.19604,-0.168037 -0.29406,-0.415424 -0.29406,-0.742163 V 26.719622 c 0,-0.261391 -4.91441,-7.386967 0.29406,-0.72816 0.19605,-0.168037 0.42476,-0.252056 0.68615,-0.252056 0.25206,0 0.47611,0.08402 0.67215,0.252056 0.20538,0.158701 0.30807,0.401421 0.30807,0.72816 z"
         id="path105778"
         sodipodi:nodetypes="cscsscssccsssscccsssscssssscsccscscsscscsc"
         style="fill:#782121" />
      <path
         d="m 175.12442,37.501991 h 3.92086 V 26.719622 c 0,-0.261391 0.098,-0.504111 0.29407,-0.72816 0.19604,-0.168037 0.42476,-0.252056 0.68615,-0.252056 0.24272,0 0.47144,0.07935 0.68615,0.238053 0.19604,0.168037 0.29406,0.415424 0.29406,0.742163 v 11.762584 c 0,0.653477 -0.32674,0.980215 -0.98021,0.980215 h -8.82194 c -1.0549,0 -1.97444,-0.378083 -2.75861,-1.134249 -0.77483,-0.756166 -1.16225,-1.685037 -1.16225,-2.786612 v -8.821938 c 0,-0.261391 0.098,-0.504111 0.29406,-0.72816 0.19605,-0.168037 0.42476,-0.252056 0.68615,-0.252056 0.25205,0 0.4761,0.08402 0.67215,0.252056 0.20538,0.158701 1.33201,-6.037241 1.31056,-5.710641 l -1.00249,15.260739 c -0.0362,0.550554 0.18671,1.017557 0.56012,1.400308 0.19604,0.168037 0.40609,0.308067 0.63014,0.420092 0.28006,0.09335 0.53678,0.140031 0.77017,0.140031 h 1.96043 V 26.719622 c 0,-0.261391 0.098,-0.504111 0.29406,-0.72816 0.19605,-0.168037 0.42476,-0.252056 0.68615,-0.252056 0.25206,0 0.47611,0.08402 0.67215,0.252056 0.20538,0.158701 0.30807,0.401421 0.30807,0.72816 z"
         id="path105780"
         sodipodi:nodetypes="ccscscsssscsscscssccscscscsc"
         style="fill:#d35f5f" />
      <path
         d="m 188.88944,33.049012 -2.19848,2.296505 v 3.136689 c 0,0.308068 -0.0933,0.555456 -0.28006,0.742163 -0.17737,0.158701 -0.41076,0.238052 -0.70016,0.238052 -0.26139,0 -0.4901,-0.07935 -0.68615,-0.238052 -0.19604,-0.168037 -3.86477,6.244247 -3.80276,5.918665 l 3.5087,-18.423412 c 0.0496,-0.260466 0.098,-0.504111 0.29406,-0.72816 0.19605,-0.168037 0.42476,-0.252056 0.68615,-0.252056 0.25206,0 0.47611,0.08402 0.67215,0.252056 0.20538,0.158701 0.30807,0.401421 0.30807,0.72816 v 5.78327 l 6.21737,-6.525433 c 0.16803,-0.196043 0.37808,-0.294065 0.63013,-0.294065 0.20538,0 0.4341,0.09802 0.68615,0.294065 0.19605,0.196043 0.29407,0.44343 0.29407,0.742163 0,0.270726 -0.10736,0.518114 -0.32207,0.742163 l -3.93487,4.14491 4.03289,6.245373 c 0.14937,0.270726 0.22405,0.494775 0.22405,0.672147 0,0.270727 -0.10736,0.499444 -0.32207,0.686151 -0.19605,0.196043 -0.42476,0.294065 -0.68615,0.294065 -0.26139,0 -0.49478,-0.130695 -0.70016,-0.392086 z"
         id="path105782"
         sodipodi:nodetypes="ccscscsscscsccscscccscscc"
         style="fill:#de8787" />
      <path
         d="m 205.49709,35.54156 v -7.841723 h -3.92086 c -0.55079,0 -1.01756,0.186708 -1.40031,0.560123 -0.18671,0.186708 -0.32674,0.401422 -0.42009,0.644142 -0.0934,0.233385 -0.14003,0.48544 -0.14003,0.756166 v 5.881292 c 0,0.550787 0.18671,1.017557 0.56012,1.400308 0.19605,0.168037 0.40609,0.308067 0.63014,0.420092 0.28006,0.09335 0.53678,0.140031 0.77017,0.140031 h 1.96043 c 0.54145,0 1.00356,-0.18204 1.38631,-0.54612 0.38275,-0.36408 0.57412,-0.835517 0.57412,-1.414311 z m 0.96621,2.632578 c -0.3174,0.36408 -0.75149,0.672148 -1.30228,0.924203 -0.54145,0.24272 -1.08291,0.36408 -1.62436,0.36408 h -1.96043 c -1.0549,0 -1.97444,-0.378083 -2.75861,-1.134249 -0.77483,-0.756166 -1.16225,-1.685037 -1.16225,-2.786612 v -5.881292 c 0,-1.082905 0.38275,-2.007108 1.14825,-2.772609 0.7655,-0.765502 -11.12411,-7.431946 -10.25971,-7.142998 l 17.9334,5.994745 c 0.52161,0.174362 0.98021,0.326739 0.98021,0.980216 v 8.807935 c 0,0.392086 0.12603,0.793507 0.37809,1.204264 0.22405,0.36408 0.55078,0.648809 0.98021,0.854188 0.41076,0.168037 0.61614,0.462102 0.61614,0.882194 0,0.289397 -0.0934,0.527449 -0.28006,0.714157 -0.16804,0.196043 -0.40143,0.294064 -0.70016,0.294064 -0.14003,0 10.75196,8.404376 10.62126,8.339029 -0.64414,-0.252055 -12.19894,-9.090526 -12.6097,-9.641314 z"
         id="path105784"
         sodipodi:nodetypes="scsccssccssssscsscsssssssccscscss"
         style="fill:#800000" />
    </g>
    <text
       xml:space="preserve"
       style="font-size:11.2889px;line-height:1.25;font-family:Stencil;-inkscape-font-specification:Stencil;stroke-width:0.264583"
       x="20.683281"
       y="101.08119"
       id="text110786"><tspan
         sodipodi:role="line"
         id="tspan110784"
         style="stroke-width:0.264583"
         x="20.683281"
         y="101.08119">покупаешь тарелку и ЛОЖКУ В</tspan></text>
    <text
       xml:space="preserve"
       style="font-size:11.2889px;line-height:1.25;font-family:Stencil;-inkscape-font-specification:Stencil;stroke-width:0.264583"
       x="87.069946"
       y="115.75966"
       id="text115578"><tspan
         sodipodi:role="line"
         id="tspan115576"
         style="fill:#ffccaa;stroke-width:0.264583"
         x="87.069946"
         y="115.75966">ПОДАРОК</tspan></text>
    <path
       sodipodi:type="star"
       style="opacity:0.769231;fill:#ff0000;fill-opacity:1;fill-rule:evenodd;stroke:#ff0b00;stroke-width:5.50677;stroke-linecap:round;stroke-miterlimit:7.6;stroke-opacity:0"
       id="path123806"
       inkscape:flatsided="false"
       sodipodi:sides="3"
       sodipodi:cx="139.95496"
       sodipodi:cy="133.65067"
       sodipodi:r1="57.870502"
       sodipodi:r2="73.167396"
       sodipodi:arg1="-0.19237602"
       sodipodi:arg2="-0.53628913"
       inkscape:rounded="-3.1225e-17"
       inkscape:randomized="0"
       d="m 196.75791,122.58631 6.09252,-26.320498 -81.71494,92.109828 19.74796,18.43653 -38.91198,-116.822125 -25.840483,7.883968 z"
       transform="scale(0.26458333)"
       inkscape:transform-center-x="-0.060363968"
       inkscape:transform-center-y="0.058155728" />
    <rect
       style="opacity:0.41666667;fill:#d35f5f;fill-opacity:1;fill-rule:evenodd;stroke:#ff0b00;stroke-width:1.457;stroke-linecap:round;stroke-miterlimit:7.6;stroke-opacity:0"
       id="rect124234"
       width="199.82719"
       height="146.78458"
       x="-5.3376212"
       y="-2.0016079"
       rx="1.4397037" />
    <path
       sodipodi:type="star"
       style="opacity:0.416667;fill:#00ffff;fill-opacity:1;fill-rule:evenodd;stroke:#ff0b00;stroke-width:5.50677;stroke-linecap:round;stroke-miterlimit:7.6;stroke-opacity:0"
       id="path124764"
       inkscape:flatsided="false"
       sodipodi:sides="4"
       sodipodi:cx="399.69116"
       sodipodi:cy="22.695396"
       sodipodi:r1="11.961527"
       sodipodi:r2="41.13078"
       sodipodi:arg1="0.32175058"
       sodipodi:arg2="0.99725386"
       inkscape:rounded="-3.1225e-17"
       inkscape:randomized="0"
       d="m 411.03886,26.477964 10.97032,30.766632 -26.10059,-23.201499 -30.76663,10.970315 23.2015,-26.100583 -10.97031,-30.766632 26.10058,23.201499 30.76663,-10.97031543 z"
       transform="scale(0.26458333)"
       inkscape:transform-center-x="1.3323038e-06" />
    <path
       sodipodi:type="star"
       style="opacity:0.416667;fill:#00ffff;fill-opacity:1;fill-rule:evenodd;stroke:#ff0b00;stroke-width:5.50677;stroke-linecap:round;stroke-miterlimit:7.6;stroke-opacity:0"
       id="path124766"
       inkscape:flatsided="false"
       sodipodi:sides="4"
       sodipodi:cx="660.68823"
       sodipodi:cy="144.99837"
       sodipodi:r1="54.450855"
       sodipodi:r2="15.835234"
       sodipodi:arg1="2.3070538"
       sodipodi:arg2="3.0924519"
       inkscape:rounded="-3.1225e-17"
       inkscape:randomized="0"
       d="m 624.12342,185.34574 20.74869,-39.56953 -24.53125,-37.34265 39.56953,20.74869 37.34265,-24.53125 -20.74869,39.56953 24.53125,37.34265 -39.56953,-20.74869 z"
       transform="scale(0.26458333)"
       inkscape:transform-center-x="2.202294e-06" />
    <path
       sodipodi:type="star"
       style="opacity:0.416667;fill:#00ffff;fill-opacity:1;fill-rule:evenodd;stroke:#ff0b00;stroke-width:5.50677;stroke-linecap:round;stroke-miterlimit:7.6;stroke-opacity:0"
       id="path124768"
       inkscape:flatsided="false"
       sodipodi:sides="4"
       sodipodi:cx="63.04277"
       sodipodi:cy="238.30167"
       sodipodi:r1="65.38237"
       sodipodi:r2="19.014305"
       sodipodi:arg1="0.68980004"
       sodipodi:arg2="1.4751982"
       inkscape:rounded="-3.1225e-17"
       inkscape:randomized="0"
       d="M 113.47698,279.90989 64.857735,257.22915 21.434545,288.73588 44.115285,240.11663 12.608557,196.69344 61.227806,219.37418 104.651,187.86745 81.970256,236.4867 Z"
       transform="scale(0.26458333)" />
    <path
       sodipodi:type="star"
       style="opacity:0.416667;fill:#d35f5f;fill-opacity:1;fill-rule:evenodd;stroke:#ff0b00;stroke-width:5.50677;stroke-linecap:round;stroke-miterlimit:7.6;stroke-opacity:0"
       id="path124770"
       inkscape:flatsided="false"
       sodipodi:sides="4"
       sodipodi:cx="577.47174"
       sodipodi:cy="421.1257"
       sodipodi:r1="48.66967"
       sodipodi:r2="14.153968"
       sodipodi:arg1="2.5032728"
       sodipodi:arg2="3.288671"
       inkscape:rounded="-3.1225e-17"
       inkscape:randomized="0"
       d="m 538.38523,450.12538 25.08536,-31.07392 -14.99852,-37.01227 31.07392,25.08536 37.01227,-14.99852 -25.08537,31.07392 14.99853,37.01227 -31.07392,-25.08536 z"
       transform="scale(0.26458333)"
       inkscape:transform-center-x="1.9249059e-06"
       inkscape:transform-center-y="-1.4037523e-06" />
    <path
       sodipodi:type="star"
       style="opacity:0.416667;fill:#00ffff;fill-opacity:1;fill-rule:evenodd;stroke:#ff0b00;stroke-width:5.50677;stroke-linecap:round;stroke-miterlimit:7.6;stroke-opacity:0"
       id="path124772"
       inkscape:flatsided="false"
       sodipodi:sides="4"
       sodipodi:cx="104.651"
       sodipodi:cy="440.03854"
       sodipodi:r1="121.62517"
       sodipodi:r2="35.370667"
       sodipodi:arg1="0.30535858"
       sodipodi:arg2="1.0907567"
       inkscape:rounded="-3.1225e-17"
       inkscape:randomized="0"
       d="m 220.64969,476.60335 -99.66401,-5.19185 -52.899484,84.62574 5.191851,-99.66402 -84.625738,-52.89948 99.664012,5.19185 52.899489,-84.62574 -5.19185,99.66401 z"
       transform="scale(0.26458333)"
       inkscape:transform-center-y="-1.4667951e-06" />
    <path
       sodipodi:type="star"
       style="opacity:0.416667;fill:#00ffff;fill-opacity:1;fill-rule:evenodd;stroke:#ff0b00;stroke-width:5.50677;stroke-linecap:round;stroke-miterlimit:7.6;stroke-opacity:0"
       id="path124774"
       inkscape:flatsided="false"
       sodipodi:sides="7"
       sodipodi:cx="350.41446"
       sodipodi:cy="223.62296"
       sodipodi:r1="110.68991"
       sodipodi:r2="103.91712"
       sodipodi:arg1="0.58724971"
       sodipodi:arg2="-3.1308791"
       inkscape:rounded="-3.1225e-17"
       inkscape:randomized="0"
       d="M 442.56023,284.95331 246.5033,222.50965 359.91641,333.90427 286.49733,141.68781 270.11742,299.81115 374.62225,122.5648 240.78374,208.34677 444.51822,179.54064 294.00423,128.38566 443.55213,269.71137 389.70277,120.14018 372.45148,325.17658 455.81641,189.81934 284.7565,304.16984 Z"
       transform="matrix(0.26458333,0,0,0.26458333,70.389879,54.377016)"
       inkscape:transform-center-x="1.1680482e-06" />
    <text
       xml:space="preserve"
       style="font-size:11.2889px;line-height:1.25;font-family:Stencil;-inkscape-font-specification:Stencil;stroke-width:0.264583"
       x="-0.3336049"
       y="142.78137"
       id="text126458"><tspan
         sodipodi:role="line"
         id="tspan126456"
         style="stroke-width:0.264583"
         x="-0.3336049"
         y="142.78137"><tspan
   style="font-size:5.64444px"
   id="tspan129340">ленина 75 ломбард</tspan> </tspan></text>
    <text
       xml:space="preserve"
       style="font-size:11.2889px;line-height:1.25;font-family:Stencil;-inkscape-font-specification:Stencil;stroke-width:0.264583"
       x="7.0056276"
       y="10.008039"
       id="text135472"><tspan
         sodipodi:role="line"
         id="tspan135470"
         style="stroke-width:0.264583"
         x="7.0056276"
         y="10.008039">подарочный купон ХЕ-ХЕ-ХЕ</tspan></text>
  </g>
</svg>
